<svg width="1298" height="755" viewBox="0 0 1298 755" fill="none" xmlns="http://www.w3.org/2000/svg">
<ellipse cx="664" cy="135.5" rx="143" ry="135.5" fill="white"/>
<ellipse cx="486.5" cy="636.5" rx="66.5" ry="88.5" fill="white"/>
<path fill-rule="evenodd" clip-rule="evenodd" d="M1129.98 369.873C1130.48 370.175 1130.98 370.475 1131.48 370.775C1132.46 371.326 1133.42 371.874 1134.38 372.419C1135.84 373.251 1137.27 374.076 1138.69 374.894C1139.12 375.144 1139.55 375.393 1139.98 375.641C1140.36 375.862 1140.74 376.081 1141.12 376.3C1146.54 379.453 1151.65 382.501 1156.45 385.446C1158.79 386.798 1161.01 388.134 1163.12 389.454C1163.33 389.591 1163.55 389.727 1163.76 389.863C1168.09 392.604 1171.9 395.277 1175.21 397.881C1175.39 398.026 1175.57 398.171 1175.75 398.315C1176.08 398.567 1176.4 398.82 1176.71 399.073C1177.04 399.341 1177.35 399.609 1177.65 399.878C1177.93 400.121 1178.19 400.364 1178.44 400.607C1179.52 401.639 1180.43 402.677 1181.16 403.72C1181.82 404.66 1182.33 405.603 1182.71 406.552C1182.77 406.705 1182.83 406.858 1182.88 407.012C1182.96 407.225 1183.03 407.439 1183.09 407.653C1183.29 408.353 1183.41 409.055 1183.45 409.76C1183.47 409.978 1183.48 410.195 1183.48 410.413V411.7C1182.96 414.96 1181.07 418.048 1177.81 420.966C1177.34 421.409 1176.85 421.846 1176.34 422.278C1176.29 422.318 1176.24 422.359 1176.19 422.4C1173.36 424.76 1169.87 426.942 1165.72 428.945C1162.93 430.338 1159.91 431.674 1156.66 432.953C1155.46 433.424 1154.23 433.887 1152.97 434.343C1151.76 434.781 1150.52 435.213 1149.24 435.637C1148.3 435.959 1147.36 436.277 1146.41 436.591C1145.84 436.782 1145.26 436.97 1144.68 437.157C1140.64 438.466 1136.52 439.7 1132.33 440.857C1131.79 441.006 1131.25 441.153 1130.71 441.299C1128.31 441.941 1125.86 442.568 1123.35 443.178C1123.25 443.202 1123.15 443.227 1123.05 443.251C1122.25 443.446 1121.44 443.64 1120.62 443.832C1119.93 443.994 1119.24 444.155 1118.54 444.315C1117.19 444.626 1115.82 444.933 1114.44 445.235C1103.96 447.522 1092.66 449.556 1080.52 451.337L1128.91 525.723C1135.64 520.146 1142.13 514.583 1148.38 509.034C1148.5 508.927 1148.62 508.82 1148.74 508.713C1148.79 508.667 1148.84 508.622 1148.89 508.576C1155.44 502.746 1161.73 496.931 1167.74 491.131C1167.87 491.003 1168.01 490.875 1168.14 490.747C1170.55 488.419 1172.92 486.092 1175.24 483.768C1177.22 481.788 1179.2 479.767 1181.18 477.707C1182.96 475.854 1184.75 473.97 1186.53 472.053C1186.69 471.88 1186.85 471.706 1187.01 471.532C1188.92 469.47 1190.83 467.372 1192.74 465.236C1197.04 460.433 1201.01 455.677 1204.66 450.967C1204.88 450.677 1205.11 450.387 1205.33 450.097C1206.39 448.705 1207.43 447.317 1208.44 445.932C1213.25 439.412 1217.28 433.063 1220.54 426.885C1222.08 423.882 1223.38 420.975 1224.42 418.164C1225.24 415.95 1225.91 413.795 1226.42 411.7C1226.52 411.268 1226.62 410.839 1226.72 410.413C1226.81 409.981 1226.9 409.552 1226.98 409.126C1227.15 408.268 1227.23 407.41 1227.23 406.552C1227.4 405.522 1227.49 404.578 1227.49 403.72C1227.49 397.028 1225.6 390.765 1221.83 384.931C1218.05 379.097 1213.33 373.606 1207.67 368.458C1206.13 367.058 1204.56 365.677 1202.96 364.315C1202.73 364.121 1202.5 363.927 1202.27 363.734C1198.18 360.296 1193.89 356.98 1189.4 353.787C1186.21 351.442 1183.13 349.118 1180.16 346.814C1179.84 346.567 1179.52 346.319 1179.2 346.072C1176.42 343.907 1173.72 341.76 1171.12 339.631C1165.81 335.287 1161.33 331.019 1157.68 326.826C1157.44 326.547 1157.2 326.268 1156.97 325.989C1156.94 325.958 1156.91 325.927 1156.89 325.896C1153.16 321.463 1151.3 316.861 1151.3 312.09C1151.3 310.711 1151.4 309.383 1151.6 308.104C1151.93 306.042 1152.51 304.11 1153.36 302.309C1153.48 302.054 1153.59 301.802 1153.71 301.552C1153.75 301.461 1153.8 301.37 1153.84 301.279C1153.98 301.004 1154.12 300.732 1154.26 300.464C1155.49 298.149 1156.99 296.104 1158.77 294.33C1160.6 292.5 1162.58 290.869 1164.71 289.438C1165.37 288.99 1166.05 288.562 1166.75 288.153C1169.83 286.265 1172.92 284.721 1176.01 283.52C1176.3 283.401 1176.6 283.284 1176.9 283.168C1183.9 280.437 1191.92 278.495 1200.98 277.343L1194.8 224.063L1192.23 192.919C1173.85 201.608 1157.01 211.355 1141.72 222.16C1141.31 222.45 1140.9 222.741 1140.49 223.033C1137.72 225.027 1134.95 227.095 1132.21 229.236C1132.18 229.257 1132.15 229.278 1132.13 229.299C1131.82 229.535 1131.52 229.773 1131.22 230.012C1130.52 230.563 1129.82 231.118 1129.12 231.678C1127.93 232.635 1126.74 233.606 1125.55 234.59C1123.92 235.945 1122.29 237.326 1120.67 238.734C1117.54 241.455 1114.53 244.275 1111.63 247.194C1108.5 250.35 1105.51 253.621 1102.66 257.009C1098.29 262.058 1094.41 267.379 1091.02 272.972C1090.76 273.4 1090.5 273.829 1090.25 274.26C1089.65 275.279 1089.07 276.306 1088.5 277.343C1087.73 278.753 1087 280.173 1086.33 281.604C1083.56 287.481 1081.62 293.525 1080.52 299.735C1080.01 302.652 1079.75 305.398 1079.75 307.972C1079.75 312.769 1080.44 317.336 1081.82 321.673C1083.1 325.714 1084.99 329.555 1087.47 333.196C1092.62 340.574 1098.97 347.352 1106.52 353.53C1109.58 355.977 1112.73 358.357 1115.98 360.67C1119.94 363.49 1124.04 366.21 1128.28 368.83C1128.84 369.177 1129.41 369.522 1129.97 369.866C1129.98 369.868 1129.98 369.871 1129.98 369.873ZM1044.61 391.248C1032.52 398.476 1022.7 409.3 1016.72 422.529C1010.67 435.944 1009.08 450.692 1011.81 464.718L1070.77 444.903L1062.79 526.495L1044.06 523.662L1070.23 563.893C1081.12 580.628 1098.63 591.919 1118.37 594.925C1138.11 597.931 1158.19 592.367 1173.56 579.632C1192.03 564.333 1209.12 548.883 1224.74 533.266C1231.54 526.463 1238.26 519.34 1244.91 511.912C1252.08 503.895 1258.77 495.705 1264.89 487.332C1271.41 478.473 1277.35 469.216 1282.45 459.559C1282.57 459.327 1282.69 459.095 1282.81 458.862C1288.3 448.165 1293.14 435.894 1295.72 422.344C1296.31 419.255 1296.74 416.11 1296.99 412.922C1297.29 410.102 1297.49 407.017 1297.49 403.72C1297.49 382.999 1291.41 363.608 1280.6 346.904C1273.86 336.497 1265.95 327.217 1257.25 318.976C1267.46 305.188 1272.64 287.646 1270.51 269.281L1264.47 217.146L1261.99 187.154C1260.1 164.268 1247.1 143.766 1227.21 132.289C1207.32 120.812 1183.07 119.82 1162.31 129.634C1139.99 140.185 1119.1 152.293 1099.81 166.072L1099.67 166.171C1091.14 172.292 1082.85 178.873 1074.78 185.882C1065.66 193.8 1057.19 202.367 1049.4 211.575C1040.87 221.489 1033.4 232.215 1027.1 243.721C1025.35 246.92 1023.72 250.18 1022.21 253.499L1039.11 251.089L1038.85 327.019L1010.98 324.947C1013.46 341.909 1019.71 358.073 1029.63 372.63C1029.78 372.837 1029.92 373.043 1030.06 373.249C1034.52 379.635 1039.39 385.631 1044.61 391.248Z" fill="white"/>
<path fill-rule="evenodd" clip-rule="evenodd" d="M889.603 464.979L884.712 489.946L831.078 499.335L831.161 503.449C831.846 537.527 856.976 566.157 890.677 571.256L1052.32 595.707C1071.31 598.58 1090.64 593.525 1105.79 581.726C1120.95 569.927 1130.59 552.421 1132.45 533.308L1133.58 521.826C1132.03 523.124 1130.48 524.423 1128.91 525.723L1080.52 451.337C1087.74 450.277 1094.67 449.128 1101.3 447.889C1111.85 445.919 1121.65 443.722 1130.71 441.299C1134.01 440.407 1137.27 439.469 1140.47 438.484C1138.74 419.665 1129.43 402.122 1114.35 390.123C1106.42 383.82 1097.37 379.412 1087.84 377.017C1095.19 369.821 1100.79 361.165 1104.35 351.712C1097.74 346.029 1092.12 339.857 1087.47 333.196C1086.14 331.245 1084.98 329.237 1084 327.172C1081.16 321.244 1079.75 314.844 1079.75 307.972C1079.75 305.398 1080.01 302.652 1080.52 299.735C1081.89 292.014 1084.55 284.549 1088.5 277.343C1092.45 270.136 1097.17 263.358 1102.66 257.009C1104.28 255.075 1105.96 253.179 1107.68 251.321C1108.15 250.814 1108.62 250.309 1109.1 249.807C1108.73 230.034 1100.02 211.306 1085.07 198.291C1069.73 184.942 1049.35 178.92 1029.23 181.79L886.632 202.124C858.52 206.132 836.356 226.471 829.071 252.633H882.138L841.214 469.869L889.603 464.979ZM896.514 271.423L901.147 502.043L1062.79 526.495L1070.77 444.903L947.477 486.342L959.832 392.91L985.828 411.957L993.292 354.559L959.832 359.964L962.663 321.356L1038.85 327.019L1039.11 251.089L896.514 271.423Z" fill="white"/>
<path fill-rule="evenodd" clip-rule="evenodd" d="M787.677 506.933V252.633H882.138L841.214 469.869L889.603 464.979L884.712 489.946L787.677 506.933ZM901.147 502.043L951.864 509.715C944.411 535.064 923.174 554.277 896.783 558.897L799.748 575.885C779.381 579.45 758.48 573.829 742.649 560.529C726.818 547.229 717.677 527.61 717.677 506.933V474.841C720.134 473.728 722.58 472.586 725.015 471.414C734.281 466.952 742.517 461.89 749.724 456.228C756.931 450.565 762.765 444.388 767.226 437.696C771.688 431.004 773.918 423.625 773.918 415.56V413.501C773.918 412.815 773.833 412.129 773.661 411.442C772.46 400.632 769.886 391.537 765.939 384.159C761.993 376.609 757.274 370.431 751.783 365.627C746.464 360.822 740.801 357.047 734.795 354.302C728.79 351.556 723.213 349.583 718.065 348.382C717.935 348.352 717.806 348.322 717.677 348.292V252.633C717.677 213.973 749.017 182.633 787.677 182.633H882.138C902.973 182.633 922.724 191.914 936.023 207.952C948.894 223.474 954.426 243.764 951.272 263.614L896.514 271.423L901.147 502.043ZM953.947 437.413L947.477 486.342L957.402 483.006L958.297 478.435C961.035 464.459 959.416 450.181 953.947 437.413Z" fill="white"/>
<path fill-rule="evenodd" clip-rule="evenodd" d="M578.045 258.553L619.742 503.587C644.731 499.098 667.436 493.435 687.858 486.598C690.855 485.594 693.803 484.565 696.702 483.511C706.311 479.908 715.749 475.875 725.014 471.414C734.28 466.952 742.517 461.89 749.724 456.228C756.931 450.565 762.765 444.388 767.226 437.696C771.688 431.004 773.918 423.625 773.918 415.56V413.501C773.918 412.815 773.833 412.129 773.661 411.442C772.46 400.632 769.886 391.537 765.939 384.159C764.6 381.596 763.171 379.191 761.653 376.944C758.7 372.573 755.41 368.8 751.783 365.627C746.464 360.822 740.801 357.047 734.795 354.302C728.79 351.556 723.213 349.583 718.065 348.382C712.917 347.181 708.542 346.494 704.938 346.323C701.335 345.98 699.276 345.808 698.761 345.808C701.244 341.772 703.517 337.456 705.579 332.859C705.797 332.374 706.012 331.886 706.225 331.394C706.283 331.256 706.342 331.118 706.4 330.979C708.218 326.614 709.876 321.605 711.373 315.951C713.089 310.117 713.947 303.854 713.947 297.161C713.947 294.588 713.775 291.928 713.432 289.182C713.26 286.437 712.746 283.691 711.888 280.946C711.722 280.32 711.539 279.706 711.34 279.103C711.047 278.217 710.717 277.356 710.351 276.521C710.351 276.52 710.35 276.519 710.35 276.518C708.647 272.634 706.156 269.305 702.879 266.532C698.418 262.757 693.012 259.754 686.664 257.524C680.486 255.293 673.623 253.749 666.072 252.891C660.062 252.208 653.997 251.796 647.878 251.657C646.311 251.621 644.74 251.604 643.165 251.604C634.928 251.604 626.864 252.033 618.97 252.891C611.077 253.577 604.128 254.349 598.122 255.207C596.979 255.374 595.845 255.544 594.72 255.716C588.921 256.601 583.363 257.547 578.045 258.553ZM612.187 183.217C603.643 183.97 595.611 184.855 588.222 185.911C588.143 185.922 588.065 185.933 587.986 185.945C580.083 187.101 572.426 188.374 565.033 189.773C541.747 194.179 523.317 209.663 514.227 229.776L523.485 225.093L603.79 487.629L551.205 517.821C554.817 535.217 564.921 550.625 579.513 560.872C594.797 571.606 613.737 575.787 632.119 572.484C663.926 566.771 693.543 559.144 720.624 549.297C720.843 549.217 721.062 549.136 721.28 549.054C732.859 544.712 744.228 539.854 755.382 534.484C768.673 528.084 781.325 520.421 792.971 511.27C795.677 509.144 798.33 506.927 800.92 504.615L787.677 506.933V304.666C786.425 303.744 785.156 302.841 783.868 301.958C783.921 300.356 783.947 298.757 783.947 297.161C783.947 292.146 783.652 287.221 783.117 282.413C782.496 275.188 781.129 268.197 779.139 261.504C773.904 242.898 763.457 226.094 748.095 213.095C736.306 203.12 723.252 196.218 710.16 191.584C698.217 187.3 686.024 184.707 673.976 183.338C663.76 182.177 653.485 181.604 643.165 181.604C632.76 181.604 622.428 182.132 612.187 183.217Z" fill="white"/>
<path fill-rule="evenodd" clip-rule="evenodd" d="M550.924 160.694C569.926 168.791 584.382 184.866 590.423 204.617L605.602 254.24C602.964 254.549 600.471 254.871 598.122 255.207C591.086 256.237 584.394 257.352 578.045 258.553L619.742 503.587C639.104 500.109 657.095 495.926 673.714 491.038C672.574 514.335 659.793 536.193 638.644 548.335L570.951 587.201C552.393 597.856 529.98 599.437 510.11 591.492C490.24 583.548 475.095 566.951 468.998 546.439L468.84 545.905C464.833 548.84 460.494 551.362 455.881 553.41C438.348 561.194 418.388 561.44 400.668 554.093L387.148 548.487C388.361 544.877 389.295 541.064 389.948 537.048C391.107 530.096 391.707 523.064 391.748 515.952C391.749 515.691 391.75 515.431 391.75 515.17C391.75 508.649 391.407 502.3 390.721 496.123C390.034 490.117 389.262 484.712 388.404 479.908C388.215 478.695 388.017 477.499 387.811 476.32C387.747 475.956 387.683 475.594 387.617 475.234C387.46 474.362 387.297 473.499 387.13 472.645C386.576 469.816 385.972 467.089 385.315 464.464L359.319 465.494C359.296 465.689 359.273 465.884 359.25 466.079C359.113 467.237 358.972 468.381 358.826 469.512C357.705 478.215 356.325 486.141 354.686 493.292C353.828 496.724 352.799 500.07 351.597 503.33C350.568 506.762 349.281 509.765 347.737 512.339C347.106 513.521 346.421 514.595 345.682 515.56C337.088 500.6 334.034 482.528 338.227 464.674L340.475 455.106C335.445 450.999 330.981 446.187 327.235 440.787C327.289 439.595 327.344 438.393 327.403 437.181C328.089 422.939 329.033 408.01 330.234 392.395H369.1V351.213L333.323 353.015C333.4 352.058 333.478 351.104 333.556 350.153C333.712 348.242 333.869 346.341 334.028 344.45C342.861 328.722 357.262 317.296 373.914 312.017L390.191 242.154C394.891 221.983 408.283 204.928 426.765 195.577L491.884 162.631C510.314 153.307 531.922 152.598 550.924 160.694ZM406.373 480.68L427.479 489.431L454.247 414.273L505.725 424.312L536.097 526.495L603.79 487.629L523.485 225.093L458.366 258.038L429.281 382.872L395.048 378.754L384.752 400.889L423.361 408.353L406.373 480.68ZM464.028 386.99L504.181 391.623L486.936 323.158L464.028 386.99Z" fill="white"/>
<path fill-rule="evenodd" clip-rule="evenodd" d="M447.692 432.68C450.051 437.313 451.921 442.267 453.225 447.487C454.933 454.317 456.324 461.291 457.447 468.356C458.556 474.673 459.483 481.311 460.268 488.175C460.273 488.219 460.278 488.263 460.283 488.307L460.292 488.393C461.278 497.259 461.75 506.192 461.75 515.17C461.75 526.321 460.845 537.419 459.018 548.423C456.778 562.109 452.597 575.756 445.939 588.796C438.259 604.022 427.306 617.487 413.161 628.117C396.606 640.74 378.204 646.772 361.107 649.012C357.014 649.678 352.804 650.032 348.509 650.032H346.45C322.766 650.032 300.63 642.474 282.014 628.662C266.676 617.44 254.837 603.447 245.65 588.969C236.877 575.146 229.769 560.107 223.947 544.433C223.845 544.157 223.744 543.881 223.645 543.604C218.474 529.124 213.955 513.889 210.025 497.975C206.933 485.452 204.176 472.603 201.743 459.439C198.326 458.413 194.997 457.128 191.784 455.598C194.424 452.354 196.912 449.132 199.247 445.932C199.283 445.884 199.318 445.836 199.353 445.788C204.111 439.318 208.108 433.017 211.345 426.885C214.605 420.537 216.75 414.617 217.779 409.126C217.951 408.268 218.037 407.41 218.037 406.552C218.208 405.522 218.294 404.578 218.294 403.72C218.294 401.6 218.105 399.522 217.726 397.488C217.326 395.344 216.716 393.248 215.896 391.2C215.038 389.058 213.95 386.968 212.632 384.931C208.857 379.097 204.138 373.606 198.475 368.458C196.105 366.304 193.66 364.194 191.14 362.13C190.448 361.563 189.751 361 189.048 360.441C186.192 358.167 183.243 355.949 180.201 353.787C176.56 351.104 173.053 348.448 169.679 345.819C167.011 343.74 164.427 341.677 161.926 339.631C161.721 339.463 161.518 339.296 161.316 339.129C165.326 324.482 173.88 311.897 185.283 302.836C184.901 294.496 184.591 286.796 184.354 279.748C184.337 279.337 184.32 278.927 184.303 278.518C186.713 278.062 189.207 277.67 191.783 277.343L185.877 226.402C192.439 201.718 212.213 181.983 238.068 176.126L331.243 155.02C353.328 150.018 376.469 156.008 393.354 171.098C410.238 186.188 418.78 208.514 416.279 231.021C414.91 243.341 413.455 256.522 411.914 270.566C411.902 270.67 411.891 270.773 411.879 270.877C411.075 277.911 410.21 285.583 409.284 293.896C412.11 295.877 414.803 298.077 417.337 300.486C429.201 311.768 436.67 326.784 438.601 342.868L429.281 382.872L395.048 378.754L384.752 400.889L423.361 408.353L406.373 480.68L427.479 489.431L447.692 432.68ZM391.75 515.376C391.75 515.307 391.75 515.238 391.75 515.17C391.75 510.853 391.6 506.611 391.299 502.445C391.28 502.186 391.261 501.927 391.241 501.669C391.163 500.65 391.075 499.636 390.979 498.626C390.973 498.568 390.968 498.51 390.962 498.453C390.887 497.674 390.807 496.897 390.721 496.123C390.034 490.117 389.262 484.712 388.404 479.908C388.293 479.198 388.179 478.494 388.063 477.795C387.95 477.121 387.835 476.453 387.717 475.789C387.28 473.333 386.807 470.951 386.297 468.641C385.984 467.221 385.657 465.829 385.315 464.464L359.319 465.494C359.095 467.412 358.86 469.294 358.612 471.14C358.401 472.716 358.181 474.266 357.952 475.789C357.48 478.939 356.97 481.977 356.423 484.905C356.377 485.152 356.331 485.398 356.284 485.643C355.782 488.284 355.249 490.834 354.686 493.292C354.641 493.474 354.594 493.656 354.548 493.838C354.349 494.615 354.141 495.388 353.925 496.156C353.828 496.498 353.73 496.84 353.63 497.181C353.316 498.247 352.986 499.305 352.638 500.354C352.624 500.396 352.61 500.438 352.596 500.48C352.278 501.437 351.945 502.387 351.597 503.33C351.571 503.42 351.544 503.509 351.516 503.598C351.509 503.621 351.502 503.643 351.495 503.666C350.769 506.03 349.918 508.187 348.943 510.137C348.801 510.421 348.656 510.701 348.509 510.976C348.259 511.443 348.002 511.897 347.737 512.339C347.33 513.101 346.901 513.818 346.45 514.489C346.294 514.722 346.135 514.948 345.973 515.17C345.376 515.989 344.742 516.734 344.071 517.405C343.676 517.801 343.267 518.171 342.846 518.516C341.13 520.232 339.157 521.09 336.926 521.09C336.573 521.09 336.226 521.073 335.884 521.039C334.897 520.94 333.958 520.7 333.065 520.318C331.785 519.769 330.7 518.221 329.809 515.673C329.752 515.51 329.696 515.342 329.64 515.17C328.937 512.997 328.363 510.166 327.918 506.676C327.905 506.577 327.892 506.477 327.879 506.377C327.857 506.204 327.835 506.03 327.813 505.854C327.713 505.042 327.618 504.206 327.529 503.345C327.523 503.291 327.517 503.236 327.512 503.181C327.51 503.17 327.509 503.158 327.508 503.147C327.451 502.595 327.397 502.034 327.344 501.463C327.301 500.991 327.259 500.513 327.219 500.028C327.2 499.803 327.181 499.576 327.163 499.348C327.075 498.242 326.995 497.102 326.922 495.927C326.886 495.36 326.853 494.785 326.821 494.202C326.762 493.139 326.71 492.049 326.663 490.933C326.644 490.481 326.626 490.024 326.609 489.563C326.576 488.671 326.546 487.762 326.52 486.837C326.514 486.641 326.509 486.444 326.504 486.246C326.444 483.992 326.405 481.642 326.386 479.197C326.378 478.081 326.373 476.945 326.373 475.789C326.373 473.653 326.385 471.469 326.409 469.238C326.435 466.773 326.476 464.249 326.531 461.668C326.598 458.508 326.688 455.261 326.798 451.927C326.956 447.187 327.158 442.272 327.403 437.181C327.554 434.038 327.718 430.862 327.895 427.653C327.983 426.052 328.074 424.443 328.168 422.825C328.562 416.078 329.009 409.185 329.511 402.148C329.741 398.927 329.982 395.677 330.234 392.395H369.1V351.213L333.323 353.015C333.371 352.413 333.42 351.813 333.469 351.213C334.273 341.345 335.105 331.739 335.967 322.395C336.532 316.274 337.109 310.265 337.698 304.368C337.977 301.838 338.25 299.355 338.519 296.919C339.069 291.943 339.6 287.165 340.112 282.584C340.896 275.569 341.636 269.018 342.331 262.929C343.876 248.858 345.334 235.646 346.707 223.291L253.532 244.397C253.532 254.178 253.79 265.074 254.304 277.085C254.402 280.003 254.513 283.052 254.638 286.232C254.953 294.272 255.357 303.148 255.849 312.862C256.009 315.984 256.188 319.162 256.385 322.395C257.034 333.026 257.885 344.262 258.937 356.104L228.823 357.648L221.873 392.395H262.541C262.856 395.173 263.187 397.95 263.531 400.727C264.562 409.03 265.722 417.333 267.011 425.636C267.462 428.537 267.928 431.438 268.41 434.338C268.596 435.457 268.785 436.577 268.976 437.696C271.218 450.849 273.785 463.547 276.678 475.789C277.107 477.601 277.542 479.403 277.984 481.195C280.655 492.011 283.585 502.255 286.776 511.928C286.788 511.965 286.8 512.001 286.812 512.038C287.709 514.757 288.628 517.431 289.567 520.06C294.028 532.072 299.09 542.539 304.753 551.462C307.772 556.219 310.962 560.416 314.322 564.051C317.265 567.234 320.338 569.987 323.542 572.31C327.718 575.442 332.179 577.621 336.926 578.848C339.982 579.637 343.157 580.032 346.45 580.032H348.509C349.195 580.032 349.882 579.946 350.568 579.774C358.804 578.917 365.582 576.428 370.902 572.31C374.262 569.817 377.177 566.879 379.647 563.495C380.798 561.92 381.852 560.247 382.809 558.479C383.05 558.033 383.285 557.582 383.514 557.124C386.524 551.271 388.638 544.766 389.855 537.61C389.887 537.423 389.918 537.236 389.948 537.048C390.061 536.374 390.168 535.699 390.27 535.023C391.112 529.437 391.595 523.8 391.718 518.111C391.738 517.201 391.749 516.289 391.75 515.376ZM151.995 388.262C151.202 401.657 154.281 414.991 160.833 426.662C163.882 424.887 166.477 422.988 168.618 420.966C171.878 418.048 173.766 414.96 174.281 411.7V410.413C174.281 406.294 171.707 402.262 166.559 398.315C162.503 395.071 157.649 391.72 151.995 388.262Z" fill="white"/>
<path fill-rule="evenodd" clip-rule="evenodd" d="M120.788 369.873C121.286 370.175 121.786 370.475 122.288 370.775C123.261 371.326 124.226 371.874 125.181 372.419C126.64 373.25 128.078 374.076 129.495 374.894C129.928 375.144 130.359 375.393 130.788 375.641C131.168 375.862 131.547 376.081 131.924 376.3M148.488 326.826C152.138 331.019 156.617 335.287 161.926 339.631C164.528 341.76 167.221 343.907 170.004 346.072C170.322 346.319 170.641 346.567 170.961 346.814C173.938 349.118 177.018 351.442 180.201 353.787C184.695 356.98 188.985 360.296 193.072 363.734C193.302 363.927 193.531 364.121 193.759 364.315C195.363 365.677 196.935 367.058 198.475 368.458C204.138 373.606 208.857 379.097 212.632 384.931C216.407 390.765 218.294 397.028 218.294 403.72C218.294 404.578 218.208 405.522 218.037 406.552C218.037 407.41 217.951 408.268 217.779 409.126C217.699 409.552 217.613 409.981 217.519 410.413C217.427 410.839 217.328 411.268 217.223 411.7C216.711 413.795 216.044 415.95 215.222 418.164C214.179 420.975 212.887 423.882 211.345 426.885M167.701 283.168C174.702 280.437 182.729 278.495 191.783 277.343L185.606 224.063L183.032 192.919C164.651 201.608 147.816 211.355 132.526 222.16C132.115 222.45 131.706 222.742 131.297 223.033C128.52 225.027 125.758 227.095 123.01 229.236C122.984 229.257 122.957 229.278 122.93 229.299C122.627 229.535 122.323 229.773 122.02 230.012C121.32 230.563 120.621 231.118 119.923 231.678C118.732 232.635 117.543 233.605 116.357 234.59C114.726 235.945 113.099 237.326 111.478 238.734C108.345 241.455 105.33 244.275 102.435 247.194C99.3046 250.35 96.3131 253.621 93.4606 257.009C89.0933 262.058 85.2146 267.379 81.8242 272.972C81.5649 273.4 81.3084 273.829 81.0548 274.26C80.4553 275.279 79.8717 276.306 79.3042 277.343C78.5318 278.753 77.8087 280.173 77.1349 281.603C74.3658 287.481 72.4292 293.525 71.3251 299.735C70.8103 302.652 70.5529 305.398 70.5529 307.972C70.5529 312.769 71.2428 317.336 72.6226 321.673C73.9079 325.714 75.7919 329.555 78.2746 333.196C83.4224 340.574 89.7713 347.352 97.3214 353.53C100.381 355.977 103.535 358.357 106.783 360.67C110.743 363.49 114.843 366.21 119.083 368.83C119.645 369.177 120.21 369.522 120.776 369.866C120.777 369.866 120.776 369.866 120.776 369.866C120.78 369.868 120.784 369.871 120.788 369.873M147.691 325.896C143.968 321.463 142.107 316.861 142.107 312.09C142.107 310.711 142.208 309.383 142.409 308.104C142.733 306.042 143.319 304.11 144.166 302.309C144.28 302.054 144.396 301.802 144.515 301.552C144.559 301.461 144.603 301.37 144.648 301.279C144.783 301.004 144.922 300.732 145.064 300.464C146.295 298.149 147.798 296.104 149.571 294.33C151.401 292.5 153.381 290.869 155.51 289.438C156.175 288.99 156.856 288.562 157.55 288.153C160.639 286.265 163.728 284.721 166.816 283.52C167.109 283.401 167.404 283.284 167.701 283.168M147.691 325.896C147.717 325.927 147.743 325.958 147.77 325.989C148.005 326.268 148.245 326.547 148.488 326.826M255.699 487.323C249.58 495.699 242.889 503.893 235.714 511.912C229.067 519.34 222.345 526.463 215.542 533.266C199.924 548.883 182.837 564.333 164.366 579.632C148.991 592.367 128.91 597.931 109.174 594.925C89.4373 591.919 71.9234 580.628 61.0371 563.893L12.648 489.508C-0.359539 469.512 -2.28916 444.269 7.52801 422.529C13.5018 409.3 23.3246 398.476 35.4178 391.248C30.1911 385.631 25.3215 379.635 20.8657 373.249C20.7223 373.043 20.5799 372.837 20.4387 372.63C7.24815 353.283 0.552948 331.096 0.552948 307.972C0.552948 300.764 1.27023 293.917 2.39027 287.57L2.40574 287.483C5.17154 271.925 10.4851 257.274 17.9074 243.721C24.208 232.215 31.675 221.49 40.2071 211.575C47.9919 202.367 56.4622 193.8 65.5797 185.882C73.6509 178.873 81.9463 172.292 90.4723 166.171L90.6101 166.072C109.901 152.293 130.795 140.185 153.115 129.634C173.876 119.82 198.129 120.812 218.018 132.289C237.907 143.766 250.903 164.268 252.794 187.154L255.273 217.148L258.307 243.315L253.532 244.397C253.532 252.253 253.698 260.83 254.031 270.125C254.112 272.402 254.203 274.722 254.304 277.085C254.591 285.686 254.998 295.424 255.524 306.299C253.48 310.786 250.973 315.035 248.056 318.976C251.047 321.808 253.944 324.763 256.732 327.844C257.306 336.518 258.01 345.58 258.842 355.03C258.874 355.387 258.906 355.745 258.937 356.104L257.032 356.201L228.823 357.648L221.873 392.395H262.541C262.97 396.17 263.426 399.945 263.908 403.72C264.029 404.664 264.151 405.608 264.275 406.552C264.621 409.18 264.979 411.809 265.35 414.437C265.525 415.673 265.702 416.909 265.883 418.145C265.913 418.351 265.943 418.558 265.973 418.764C266.899 425.075 267.9 431.385 268.976 437.696C270.179 444.754 271.476 451.682 272.866 458.478C272.934 458.806 273.001 459.134 273.069 459.462C273.09 459.568 273.112 459.674 273.134 459.78C268.065 469.355 262.166 478.535 255.699 487.323ZM195.461 450.967C195.686 450.677 195.909 450.387 196.131 450.097C197.199 448.705 198.237 447.317 199.247 445.932M195.461 450.967C191.816 455.677 187.844 460.433 183.547 465.236C181.636 467.372 179.725 469.471 177.815 471.532C177.654 471.706 177.493 471.88 177.332 472.053C175.55 473.97 173.768 475.854 171.987 477.707C170.006 479.767 168.025 481.788 166.044 483.768C163.72 486.092 161.353 488.419 158.943 490.747C158.811 490.875 158.678 491.003 158.546 491.131C152.531 496.931 146.249 502.746 139.699 508.576C139.648 508.622 139.596 508.667 139.545 508.713C139.425 508.82 139.305 508.927 139.184 509.034C132.937 514.583 126.447 520.146 119.714 525.723L71.3251 451.337C83.461 449.556 94.7661 447.522 105.24 445.235C106.624 444.933 107.993 444.626 109.347 444.315C110.044 444.155 110.738 443.994 111.427 443.832C112.242 443.64 113.052 443.446 113.856 443.251C113.957 443.227 114.057 443.202 114.157 443.178C116.662 442.568 119.115 441.941 121.516 441.299C122.056 441.153 122.595 441.006 123.133 440.857C127.326 439.7 131.444 438.466 135.485 437.157C136.063 436.97 136.639 436.782 137.214 436.591C138.163 436.277 139.108 435.959 140.048 435.637C141.32 435.213 142.563 434.781 143.777 434.343C145.038 433.887 146.267 433.424 147.465 432.953C150.715 431.674 153.733 430.338 156.521 428.945C160.669 426.942 164.162 424.76 166.999 422.4C167.048 422.359 167.096 422.318 167.145 422.278C167.658 421.846 168.149 421.409 168.618 420.966C171.878 418.048 173.766 414.96 174.281 411.7V410.413C174.281 410.195 174.273 409.978 174.259 409.76M173.892 407.653C173.831 407.439 173.763 407.225 173.689 407.012C173.635 406.858 173.578 406.705 173.517 406.552C173.139 405.603 172.621 404.66 171.962 403.72C171.231 402.677 170.327 401.639 169.249 400.607C168.995 400.364 168.731 400.121 168.458 399.878C168.155 399.609 167.84 399.341 167.514 399.073C167.206 398.82 166.888 398.567 166.559 398.315C166.378 398.171 166.196 398.026 166.012 397.881C162.709 395.277 158.894 392.604 154.568 389.863C154.353 389.727 154.137 389.591 153.92 389.454C151.816 388.134 149.595 386.798 147.255 385.446" fill="white"/>
<path d="M184.5 285.5L204.5 265.5C199.5 263.5 189.2 259.5 188 259.5C186.8 259.5 174.833 265.5 169 268.5L184.5 285.5Z" fill="black"/>
<path fill-rule="evenodd" clip-rule="evenodd" d="M822.373 476.98C856.822 476.98 886.15 502.044 891.518 536.072L907.496 637.356C911.12 660.331 903.096 683.607 886.082 699.467L847.127 735.781C830.558 751.227 807.54 757.7 785.349 753.155C771.814 750.382 759.607 743.719 750.065 734.242H720.429C683.33 734.242 652.673 705.298 650.544 668.26L650.109 660.696C655.495 662.796 661.466 663.846 668.023 663.846C668.991 663.846 669.916 663.802 670.796 663.714C671.764 663.714 672.733 663.67 673.701 663.582C678.279 663.142 682.241 661.865 685.586 659.753C686.904 658.941 688.151 658.04 689.326 657.047C691.212 655.454 692.915 653.626 694.433 651.565C696.898 648.22 698.923 644.391 700.508 640.077C700.931 638.984 701.33 637.875 701.702 636.748C702.802 633.427 703.68 629.959 704.337 626.344C705.306 621.502 705.966 616.484 706.318 611.29C706.49 609.258 706.629 607.246 706.734 605.254C706.75 604.946 706.765 604.638 706.78 604.331C706.912 601.549 706.978 598.806 706.978 596.104C706.978 595.067 706.973 594.041 706.961 593.026C706.939 590.957 706.892 588.935 706.823 586.959C706.735 584.476 706.611 582.066 706.45 579.729C706.098 574.623 705.702 570.09 705.262 566.128C704.789 562.03 704.281 558.179 703.737 554.574C703.674 554.153 703.609 553.734 703.545 553.319L683.869 548.169C683.559 550.754 683.234 553.289 682.893 555.773C681.494 565.977 679.838 575.327 677.927 583.823C676.87 588.313 675.682 592.758 674.361 597.16C673.129 601.474 671.72 605.391 670.136 608.913C668.551 612.434 666.835 615.339 664.986 617.628C663.137 619.917 661.156 621.194 659.043 621.458H658.383C657.063 621.458 655.962 620.841 655.082 619.609C654.202 618.288 653.453 616.484 652.837 614.195C652.309 611.906 651.913 609.221 651.649 606.14C651.473 602.97 651.384 599.537 651.384 595.84C651.384 592.054 651.473 588.049 651.649 583.823C651.913 579.597 652.221 575.328 652.573 571.014C652.925 566.612 653.321 562.254 653.761 557.941C653.778 557.775 653.795 557.609 653.812 557.444C654.239 553.313 654.706 549.385 655.214 545.66C656.27 536.504 657.547 527.393 659.043 518.325L652.987 519.826C655.932 514.557 659.573 509.643 663.856 505.229C677.504 491.166 696.421 483.468 716.01 484.006L759.323 485.194C762.83 485.29 766.298 485.649 769.702 486.256C779.966 480.354 791.865 476.98 804.546 476.98H822.373ZM822.373 546.98H804.546L803.886 617.1L757.403 555.168L714.09 553.979L720.429 664.242H759.912L754.894 583.955L799.396 684.578L838.351 648.264L822.373 546.98Z" fill="white"/>
<path fill-rule="evenodd" clip-rule="evenodd" d="M721.27 485.6C748.226 492.656 768.43 515.027 772.713 542.559C773.49 547.553 774.182 552.744 774.8 558.104C774.811 558.202 774.823 558.3 774.833 558.398C775.406 563.555 775.883 569.091 776.284 574.913C776.418 576.855 776.532 578.811 776.626 580.779L757.403 555.168L714.09 553.979L720.429 664.242H759.912L754.894 583.955L774.832 629.037C774.354 632.529 773.776 636.013 773.094 639.486C771.507 648.016 769.176 656.497 765.991 664.819C762.382 674.486 757.428 684.077 750.787 693.089C743.231 703.345 733.785 712.225 722.602 719.165C708.704 727.854 693.997 731.953 680.401 733.261C680.28 733.272 680.16 733.284 680.039 733.295C678.077 733.473 676.109 733.595 674.136 733.659C672.032 733.789 669.991 733.846 668.023 733.846C649.027 733.846 629.194 729.694 610.636 719.275C596.012 711.145 583.391 700.427 572.999 687.622C565.418 678.282 559.086 668.228 553.875 657.686L556.208 616.176L570.338 624.891L572.054 595.311L555.02 599.273V579.465H594.239L591.466 540.51L528.695 554.306C528.253 548.031 527.956 541.687 527.794 535.28C526.964 502.455 549.061 473.466 580.932 465.567L642.204 450.381C665.062 444.716 689.238 450.924 706.538 466.903C712.41 472.326 717.222 478.627 720.868 485.495L721.27 485.6ZM597.953 539.053C598.135 543.571 598.398 547.996 598.742 552.327C599.134 557.253 599.631 562.058 600.233 566.741C600.237 566.77 600.241 566.799 600.244 566.828C600.858 571.593 601.581 576.232 602.413 580.746C602.477 581.091 602.541 581.436 602.606 581.779C603.518 586.611 604.556 591.298 605.72 595.84C605.97 596.815 606.225 597.783 606.487 598.745C607.367 602.02 608.339 605.267 609.403 608.487C609.54 608.9 609.678 609.313 609.817 609.725C611.308 614.129 612.971 618.48 614.806 622.778C614.832 622.837 614.858 622.895 614.884 622.953C615.078 623.389 615.275 623.823 615.474 624.254C618.102 629.943 621.144 635.168 624.602 639.929C624.833 640.248 625.067 640.565 625.302 640.88C625.97 641.774 626.653 642.65 627.351 643.51C632.281 649.585 638.091 654.471 644.782 658.168C648.913 660.505 653.447 662.121 658.383 663.015C658.603 663.055 658.823 663.093 659.043 663.13C660.757 663.416 662.518 663.616 664.328 663.731C665.538 663.808 666.77 663.846 668.023 663.846C668.991 663.846 669.916 663.802 670.796 663.714C671.764 663.714 672.733 663.67 673.701 663.582C678.279 663.142 682.241 661.865 685.586 659.753C689.019 657.64 691.968 654.911 694.433 651.565C695.973 649.475 697.342 647.196 698.538 644.728C699.257 643.246 699.913 641.695 700.508 640.077C702.18 635.763 703.457 631.185 704.337 626.344C704.462 625.72 704.581 625.094 704.696 624.465C705.47 620.207 706.011 615.815 706.318 611.29C706.444 609.797 706.553 608.315 706.643 606.845C706.652 606.693 706.661 606.542 706.67 606.391C706.736 605.279 706.791 604.173 706.835 603.074C706.853 602.622 706.87 602.172 706.885 601.722C706.888 601.616 706.892 601.51 706.895 601.404C706.913 600.81 706.929 600.218 706.941 599.628C706.966 598.446 706.978 597.271 706.978 596.104C706.978 596.016 706.978 595.928 706.978 595.84C706.976 594.076 706.959 592.345 706.924 590.646C706.922 590.546 706.92 590.446 706.918 590.346C706.896 589.309 706.868 588.284 706.834 587.272C706.821 586.886 706.807 586.503 706.792 586.121C706.779 585.8 706.766 585.48 706.753 585.162C706.718 584.361 706.68 583.568 706.637 582.783C706.582 581.752 706.519 580.734 706.45 579.729C706.347 578.232 706.24 576.784 706.129 575.386C706.127 575.356 706.124 575.327 706.122 575.298C706.016 573.97 705.908 572.687 705.795 571.448C705.625 569.573 705.447 567.8 705.262 566.128C705.146 565.124 705.028 564.134 704.908 563.16C704.48 559.692 704.026 556.411 703.545 553.319L683.869 548.169C683.838 548.432 683.806 548.694 683.774 548.955C683.75 549.152 683.726 549.349 683.702 549.545C683.427 551.783 683.14 553.983 682.842 556.145C682.823 556.28 682.805 556.414 682.786 556.548C682.585 557.996 682.378 559.426 682.167 560.839C681.758 563.57 681.329 566.236 680.882 568.837C680.876 568.872 680.869 568.908 680.863 568.943C680.614 570.387 680.359 571.812 680.098 573.216C680.095 573.231 680.093 573.245 680.09 573.26C679.553 576.146 678.991 578.947 678.403 581.664C678.246 582.389 678.087 583.109 677.927 583.823C677.842 584.185 677.756 584.546 677.669 584.907C677.626 585.085 677.583 585.263 677.54 585.441C677.261 586.59 676.973 587.736 676.676 588.879C676.123 591.011 675.54 593.133 674.927 595.245C674.869 595.443 674.811 595.642 674.753 595.84C674.727 595.928 674.702 596.016 674.676 596.104C674.66 596.158 674.644 596.212 674.628 596.266C674.539 596.564 674.451 596.862 674.361 597.16C674.341 597.232 674.32 597.304 674.299 597.377C673.588 599.847 672.818 602.187 671.991 604.396C671.912 604.606 671.833 604.815 671.753 605.023C671.442 605.833 671.123 606.624 670.796 607.398C670.675 607.684 670.554 607.967 670.431 608.248C670.362 608.404 670.294 608.56 670.225 608.714C670.208 608.753 670.19 608.791 670.173 608.829C670.172 608.832 670.17 608.836 670.169 608.839C670.158 608.863 670.147 608.888 670.136 608.913C670.028 609.153 669.919 609.391 669.809 609.625C669.772 609.706 669.734 609.786 669.697 609.866C669.618 610.031 669.54 610.196 669.461 610.358C669.294 610.704 669.125 611.043 668.955 611.375C668.878 611.525 668.801 611.673 668.724 611.82C668.493 612.261 668.259 612.689 668.023 613.105C667.451 614.113 666.865 615.051 666.263 615.919C666.191 616.022 666.119 616.124 666.047 616.226C665.698 616.716 665.345 617.184 664.986 617.628C664.782 617.881 664.576 618.122 664.368 618.35C664.171 618.567 663.972 618.773 663.771 618.968C663.041 619.677 662.292 620.238 661.523 620.651C661.363 620.737 661.202 620.816 661.04 620.889M597.953 539.053C597.937 538.651 597.921 538.249 597.906 537.845ZM651.728 607.014C651.747 607.208 651.766 607.401 651.786 607.593C652.043 610.072 652.394 612.273 652.837 614.195C653.026 614.897 653.228 615.553 653.441 616.164C653.562 616.51 653.687 616.841 653.816 617.158C654.203 618.106 654.624 618.923 655.082 619.609C655.305 619.921 655.542 620.194 655.793 620.427C656.534 621.114 657.397 621.458 658.383 621.458H659.043M653.447 561.112C653.549 560.052 653.654 558.995 653.761 557.941C654.202 553.627 654.686 549.533 655.214 545.66C655.249 545.354 655.285 545.049 655.321 544.743C655.818 540.491 656.363 536.249 656.956 532.016C657.596 527.441 658.292 522.878 659.043 518.325L597.771 533.511C597.808 534.965 597.853 536.41 597.906 537.845M651.409 592.335C651.393 593.524 651.384 594.692 651.384 595.84C651.384 595.928 651.385 596.016 651.385 596.104C651.386 596.991 651.392 597.863 651.403 598.719C651.411 599.319 651.421 599.912 651.434 600.497C651.464 601.862 651.508 603.186 651.565 604.469C651.588 604.988 651.614 605.501 651.641 606.007C651.644 606.051 651.646 606.095 651.649 606.14C651.657 606.24 651.666 606.339 651.675 606.439C651.681 606.513 651.688 606.587 651.695 606.661C651.703 606.745 651.71 606.829 651.718 606.912C651.722 606.946 651.725 606.98 651.728 607.014M651.409 592.335C651.417 591.765 651.426 591.19 651.438 590.61C651.44 590.502 651.442 590.394 651.444 590.285C651.469 589.087 651.502 587.87 651.543 586.633C651.545 586.586 651.547 586.54 651.548 586.493C651.578 585.613 651.611 584.723 651.649 583.823C651.655 583.718 651.662 583.612 651.668 583.507C651.784 581.679 651.907 579.843 652.039 577.998C652.045 577.911 652.051 577.823 652.057 577.736C652.189 575.905 652.328 574.066 652.476 572.219C652.482 572.143 652.488 572.067 652.494 571.991C652.52 571.666 652.546 571.34 652.573 571.014C652.594 570.746 652.616 570.479 652.638 570.211C652.886 567.157 653.156 564.124 653.447 561.112" fill="white"/>
<path fill-rule="evenodd" clip-rule="evenodd" d="M519.366 556.356L530.458 674.146L553.039 672.562L556.208 616.176L570.338 624.891L572.054 595.311L555.02 599.273V579.465H594.239L591.466 540.51L519.366 556.356ZM599.516 560.644C600.026 565.415 600.641 570.067 601.36 574.598C601.59 576.046 601.83 577.483 602.082 578.907C602.114 579.093 602.147 579.279 602.181 579.465C603.284 585.638 604.59 591.579 606.096 597.287C606.225 597.775 606.355 598.261 606.487 598.745C606.534 598.921 606.582 599.097 606.63 599.273C608.488 606.101 610.744 612.807 613.4 619.39C613.857 620.523 614.325 621.652 614.806 622.778C615.536 624.425 616.299 626.034 617.097 627.605C619.428 632.197 622.048 636.467 624.956 640.414C625.308 640.892 625.664 641.364 626.025 641.833C626.461 642.399 626.903 642.958 627.351 643.51C629.728 646.439 632.31 649.092 635.097 651.469C632.215 658.488 628.212 664.99 623.253 670.717L622.929 676.49C620.95 711.688 593.106 739.922 557.939 742.39L535.358 743.975C497.442 746.635 464.33 718.552 460.766 680.709L449.674 562.919C446.36 527.721 469.81 495.577 504.34 487.988L576.44 472.142C596.3 467.777 617.076 472.263 633.365 484.434C644.98 493.113 653.494 505.086 657.948 518.597L597.771 533.511C597.827 535.711 597.901 537.889 597.994 540.045C598.3 547.144 598.807 554.01 599.516 560.644ZM658.638 520.814C657.834 525.824 657.097 530.848 656.428 535.886C655.995 539.138 655.591 542.396 655.214 545.66C654.686 549.534 654.202 553.627 653.761 557.941C653.321 562.255 652.925 566.612 652.573 571.014C652.455 572.46 652.342 573.901 652.234 575.337C652.019 578.185 651.824 581.014 651.649 583.823C651.472 588.049 651.384 592.054 651.384 595.84C651.384 599.537 651.472 602.97 651.649 606.14C651.913 609.221 652.309 611.906 652.837 614.195C653.07 615.058 653.321 615.853 653.591 616.579C661.388 604.109 665.123 589.39 664.062 574.495L661.289 535.54C660.931 530.506 660.034 525.573 658.638 520.814ZM515.561 670.455C515.686 669.642 515.749 668.803 515.749 667.94C515.749 665.651 515.309 663.494 514.428 661.469C513.636 659.533 512.492 657.816 510.995 656.319C509.498 654.823 507.738 653.634 505.713 652.754C503.776 651.874 501.663 651.433 499.374 651.433C497.085 651.433 494.929 651.874 492.904 652.754C490.967 653.634 489.25 654.823 487.754 656.319C486.257 657.816 485.069 659.533 484.188 661.469C483.859 662.31 483.599 663.174 483.406 664.06C483.135 665.308 483 666.602 483 667.94C483 670.229 483.396 672.342 484.188 674.278C484.841 675.779 485.662 677.11 486.653 678.271C486.999 678.678 487.366 679.063 487.754 679.428C489.25 680.925 490.967 682.113 492.904 682.994C494.929 683.874 497.085 684.314 499.374 684.314C501.663 684.314 503.776 683.874 505.713 682.994C507.738 682.113 509.498 680.925 510.995 679.428C512.123 678.366 513.052 677.129 513.78 675.717C514.017 675.256 514.233 674.777 514.428 674.278C514.977 673.072 515.354 671.798 515.561 670.455Z" fill="white"/>
<path fill-rule="evenodd" clip-rule="evenodd" d="M506.487 653.112C506.325 653.032 506.162 652.955 505.997 652.88L513.503 635.615L505.713 652.754L520.529 618.676C513.511 615.672 506.235 614.314 499.374 614.314C492.837 614.314 485.477 615.552 478.089 618.679C477.994 618.719 477.898 618.76 477.803 618.801C477.71 618.841 477.618 618.881 477.525 618.921C477.458 618.95 477.392 618.98 477.325 619.009C477.132 619.095 476.94 619.183 476.748 619.271C472.002 621.463 467.303 624.511 463.026 628.461C462.75 628.717 462.476 628.975 462.203 629.238C461.967 629.469 461.734 629.702 461.503 629.936C461.481 629.958 461.459 629.981 461.437 630.003C456.788 634.734 453.249 640.001 450.73 645.324C450.608 645.582 450.488 645.84 450.371 646.098C450.218 646.435 450.069 646.772 449.924 647.109C449.81 647.383 449.7 647.657 449.592 647.931C449.48 648.214 449.371 648.497 449.265 648.78C446.76 655.447 445.749 662.029 445.749 667.94C445.749 674.436 446.966 681.303 449.645 687.972C449.695 688.097 449.746 688.222 449.797 688.347C449.842 688.457 449.888 688.567 449.933 688.677C449.993 688.816 450.053 688.955 450.113 689.094C450.154 689.189 450.196 689.283 450.238 689.378C452.97 695.553 456.81 701.113 461.432 705.751L487.754 679.428L485.641 681.673L462.236 706.541C466.72 710.855 471.708 714.148 476.748 716.476C476.94 716.565 477.132 716.652 477.325 716.738C477.392 716.768 477.459 716.797 477.525 716.826C477.618 716.867 477.71 716.907 477.803 716.947C477.898 716.988 477.994 717.028 478.089 717.068C485.477 720.196 492.837 721.433 499.374 721.433C506.235 721.433 513.511 720.076 520.529 717.072L505.713 682.994L513.504 700.134L505.997 682.867C506.162 682.792 506.325 682.715 506.487 682.636L521.87 716.48C527.225 714.045 532.207 710.679 536.513 706.541L513.108 681.673L510.995 679.428L537.317 705.751C541.757 701.295 545.352 696.072 547.914 690.435L514.096 675.064C514.213 674.807 514.324 674.545 514.428 674.278C514.554 674.002 514.67 673.722 514.778 673.439L549.375 686.977C551.282 682.104 552.362 677.225 552.787 672.579L553.039 672.562L556.208 616.176L570.338 624.891L570.674 619.093C573.906 623.822 576.674 628.894 578.924 634.259C583.568 645.204 585.749 656.649 585.749 667.94C585.749 678.88 583.696 690.338 578.924 701.499C574.688 711.671 568.357 721.343 559.767 729.642C552.105 737.127 543.374 742.879 534.13 746.967C522.592 752.112 510.706 754.314 499.374 754.314C487.843 754.314 476.149 752.039 464.993 747.189C464.64 747.035 464.288 746.879 463.938 746.719C454.706 742.523 446.279 736.773 438.98 729.641C430.476 721.426 424.243 711.964 419.994 702.189C419.791 701.722 419.593 701.254 419.4 700.783C414.856 689.675 413 678.461 413 667.94C413 657.389 414.863 646.537 419.001 635.961C419.458 634.796 419.945 633.643 420.463 632.503C424.798 622.965 430.793 614.285 438.256 606.822C445.72 599.359 454.4 593.364 463.938 589.028C464.288 588.869 464.64 588.712 464.993 588.559C476.149 583.708 487.843 581.433 499.374 581.433C506.768 581.433 514.397 582.371 522.012 584.451L525.46 621.07C524.285 620.423 523.087 619.821 521.87 619.268L506.487 653.112ZM514.585 661.843L528.754 656.047L528.65 654.947L514.308 661.183C514.349 661.278 514.389 661.373 514.428 661.469C514.482 661.593 514.535 661.718 514.585 661.843Z" fill="white"/>
<path d="M222 366.5L242 346L245.5 351.5L256 372L222 366.5Z" fill="black"/>
<path d="M352.5 474.5L373 454L377.5 463.5L376 477L352.5 474.5Z" fill="black"/>
<path d="M247 253L267 233C269.333 238 274 248.4 274 250C274 251.6 256 252.667 247 253Z" fill="black"/>
<path d="M388.5 387.5L408 367V374L401.5 391.5L388.5 387.5Z" fill="black"/>
<path d="M361.5 400.5L382.5 380.5L378.5 377L357.5 373.5L361.5 400.5Z" fill="black"/>
<path d="M571 267L592 247.5L601.5 268L571 267Z" fill="black"/>
<path d="M566.5 629.5L572.5 622L567.5 616C566.833 618.833 565.3 624.7 564.5 625.5C563.7 626.3 565.5 628.5 566.5 629.5Z" fill="black"/>
<path d="M877.5 498.5L898 478L877.5 476.5V498.5Z" fill="black" stroke="black"/>
<path d="M594 539L600 531L602 538.5L594 539Z" fill="black"/>
<path d="M680 553.5L686 545V556.5H681L680 553.5Z" fill="black"/>
<path d="M451.5 266L472.5 246.5L477.5 254V263.5L451.5 266Z" fill="black"/>
<path d="M710 559.5L716.5 551.5L718 559.5H710Z" fill="black"/>
<path d="M590 584.5L596 576.5L587 573.5L590 584.5Z" fill="black"/>
<path d="M755.5 669.5L762 661C761.667 660.333 760.8 659 760 659C759.2 659 755 658.333 753 658L751.5 660L755.5 669.5Z" fill="black"/>
<path d="M800 552.5L805.5 544L808 545.5V552.5H800Z" fill="black"/>
<path d="M420 497L440.5 477L423.5 467L420 497Z" fill="black"/>
<path d="M515 562L521.5 553.5L525.5 562H515Z" fill="black"/>
<path d="M596.5 496L617 475.5L590 484.5L596.5 496Z" fill="black"/>
<path d="M781 261L801 240.5L811 264.5L781 261Z" fill="black"/>
<path d="M1031.41 334L1051 314.328C1048.88 312.525 1044.24 308.623 1042.67 307.443C1041.11 306.262 1031.57 304.656 1027 304L1031.41 334Z" fill="black" stroke="black"/>
<path d="M1056 534.5L1075.5 514L1070 506.5L1056 505.5V534.5Z" fill="black" stroke="black"/>
<path d="M890.5 279.5L909.5 260L918.5 279.5H890.5Z" fill="black" stroke="black"/>
<path d="M1074.5 463L1094 440L1128.5 453.5L1094 470.5L1074.5 463Z" fill="black" stroke="black"/>
<path d="M1194 285L1214 265L1189.5 266.5L1194 285Z" fill="black" stroke="black"/>
<path d="M979 419.5L998.5 399.5L996.5 394L981.5 383L979 419.5Z" fill="black" stroke="black"/>
<path d="M65 459.5L85 440L106 444V470L65 459.5Z" fill="black"/>
<g filter="url(#filter0_d_7_70)">
<path d="M155.107 300.09C155.107 328.66 231.294 351.568 231.294 391.72C231.294 393.522 231.037 395.324 230.779 397.126C223.315 440.624 132.714 513.723 132.714 513.723L84.3251 439.337C84.3251 439.337 183.677 425.696 187.281 399.7V398.413C187.281 373.961 83.5529 351.053 83.5529 295.972C83.5529 293.398 83.8103 290.567 84.3251 287.735C95.3928 225.705 196.032 180.919 196.032 180.919L198.606 212.063L204.783 265.343C204.783 265.343 155.107 270.49 155.107 300.09ZM372.319 453.494L398.315 452.464C398.315 452.464 404.75 476.916 404.75 503.17C404.75 532.512 396.771 564.428 363.568 567.775C362.281 568.032 360.737 568.032 359.45 568.032C309.259 568.032 286.351 470.482 275.541 380.395H234.873L241.823 345.648L271.937 344.104C266.532 282.588 266.532 232.397 266.532 232.397L359.707 211.291C359.707 211.291 352.243 273.579 346.323 341.015L382.1 339.213V380.395H343.234C340.918 411.282 339.373 440.882 339.373 463.789C339.373 489.014 341.175 506.259 346.065 508.318C347.352 508.832 348.639 509.09 349.926 509.09C367.686 509.09 372.319 453.494 372.319 453.494ZM471.366 246.038L536.485 213.093L616.79 475.629L549.097 514.495L518.725 412.312L467.247 402.273L440.479 477.431L419.373 468.68L436.361 396.353L397.752 388.889L408.048 366.754L442.281 370.872L471.366 246.038ZM477.028 374.99L517.181 379.623L499.936 311.158L477.028 374.99ZM711.761 333.808C714.849 333.808 779.969 334.58 786.661 399.442C786.918 400.729 786.918 402.273 786.918 403.56C786.918 467.135 632.742 491.587 632.742 491.587L591.045 246.553C591.045 246.553 623.219 239.604 656.165 239.604C687.051 239.604 718.453 245.781 724.888 268.946C726.432 274.351 726.947 280.014 726.947 285.161C726.947 311.673 711.761 333.808 711.761 333.808ZM895.138 240.633L854.213 457.869L902.603 452.979L897.712 477.946L800.677 494.933V240.633H895.138ZM972.832 380.91L960.477 474.342L1083.77 432.903L1075.79 514.495L914.147 490.043L909.514 259.423L1052.11 239.089L1051.85 315.019L975.663 309.356L972.832 347.964L1006.29 342.559L998.828 399.957L972.832 380.91ZM1164.3 300.09C1164.3 328.66 1240.49 351.568 1240.49 391.72C1240.49 393.522 1240.23 395.324 1239.98 397.126C1232.51 440.624 1141.91 513.723 1141.91 513.723L1093.52 439.337C1093.52 439.337 1192.87 425.696 1196.48 399.7V398.413C1196.48 373.961 1092.75 351.053 1092.75 295.972C1092.75 293.398 1093.01 290.567 1093.52 287.735C1104.59 225.705 1205.23 180.919 1205.23 180.919L1207.8 212.063L1213.98 265.343C1213.98 265.343 1164.3 270.49 1164.3 300.09Z" fill="#FF5C39"/>
<rect x="472" y="286" width="69" height="96" fill="#FF5C39"/>
</g>
<g filter="url(#filter1_d_7_70)">
<path d="M501.374 648.433C510.486 648.433 517.749 655.828 517.749 664.94C517.749 673.919 510.486 681.314 501.374 681.314C492.263 681.314 485 673.919 485 664.94C485 655.828 492.263 648.433 501.374 648.433ZM596.239 576.465H557.02V596.273L574.054 592.311L572.338 621.891L558.208 613.176L555.039 669.562L532.458 671.146L521.366 553.356L593.466 537.51L596.239 576.465ZM685.869 545.169L705.545 550.319C705.545 550.319 708.978 570.127 708.978 593.104C708.978 622.947 703.036 658.073 675.701 660.582C673.72 660.714 671.872 660.846 670.023 660.846C599.771 660.846 599.771 530.511 599.771 530.511L661.043 515.325C661.043 515.325 653.384 562.336 653.384 592.84C653.384 607.629 655.101 618.458 660.383 618.458H661.043C678.21 615.949 685.869 545.169 685.869 545.169ZM806.546 543.98H824.373L840.351 645.264L801.396 681.578L756.894 580.955L761.912 661.242H722.429L716.09 550.979L759.403 552.168L805.886 614.1L806.546 543.98Z" fill="#FF5C39"/>
</g>
<path d="M662.212 385.583L660.751 373.685L684.323 370.791L685.775 382.619L697.556 381.172L696.105 369.354L719.725 366.454L721.181 378.315L732.942 376.871L735.87 400.714L724.154 402.153L725.621 414.096L713.794 415.548L715.261 427.491L703.475 428.938L704.934 440.824L693.146 442.272L691.692 430.424L679.886 431.874L678.417 419.913L666.607 421.364L665.144 409.446L653.391 410.889L650.459 387.012L662.224 385.567C662.317 386.445 662.212 385.583 662.212 385.583Z" fill="#F7F3EC"/>
<path d="M709.207 391.924L704.166 392.542L703.547 387.502L708.588 386.883L707.969 381.842L713.009 381.223L713.628 386.264L718.669 385.645L719.288 390.686L714.247 391.305L714.866 396.345L709.825 396.964L709.207 391.924Z" fill="#FF5C39"/>
<path d="M768.75 135.681C772.975 131.691 775.088 124.65 775.557 120.894C775.792 119.486 775.088 118.077 774.149 118.312C771.567 118.547 767.107 119.72 763.352 123.945C761.709 125.588 760.535 127.701 759.596 129.579C760.066 124.65 760.066 122.068 759.831 117.139C762.413 116.669 766.403 115.495 769.22 111.271C772.506 106.341 772.741 99.0652 772.506 95.075C772.506 93.6667 771.332 92.4931 770.628 92.7278C768.281 93.432 764.056 95.7792 761.474 100.708C760.3 102.821 759.596 104.933 759.127 107.046C758.423 102.117 757.719 99.5347 756.31 94.6056C758.657 93.6667 762.178 91.3195 763.821 86.6252C765.699 80.9919 764.291 73.4809 762.882 69.7254C762.413 68.3171 761.005 67.3783 760.3 67.8477C758.188 69.256 754.667 72.3073 753.494 77.9406C753.024 80.2878 752.79 82.6349 752.79 84.9821C750.677 79.8183 749.269 77.2364 746.217 72.3073C745.279 70.6643 743.401 69.7254 742.227 70.6643C741.054 71.3685 741.054 73.2462 741.992 74.8892C744.809 79.5836 746.217 81.9308 748.095 87.0946C746.452 85.6863 744.574 84.278 742.697 83.5738C737.768 81.6961 733.308 83.5738 730.961 84.7474C730.257 85.2168 730.022 86.3904 730.726 87.0946C732.604 89.2071 736.124 93.1973 740.819 95.3097C744.809 97.1875 748.799 96.9528 751.381 96.4833C752.789 101.178 753.259 103.525 754.198 108.219C753.024 106.341 751.616 104.698 749.738 103.76C745.279 100.943 740.584 101.647 738.237 102.117C737.298 102.351 737.063 103.29 737.533 104.229C738.706 106.576 741.288 111.036 745.279 114.087C748.799 116.669 752.789 117.608 755.371 117.608C755.606 122.302 755.606 124.884 755.137 129.579C754.433 127.701 753.259 125.588 751.851 124.18C748.33 120.425 743.401 119.955 741.054 119.955C740.115 119.955 739.411 120.894 739.88 121.833C740.584 124.415 741.992 129.344 745.279 133.099C748.095 136.385 751.616 138.263 754.198 138.967C753.259 143.662 752.789 146.009 751.381 150.468C751.146 148.356 750.442 146.244 749.503 144.366C746.922 139.906 742.227 138.498 739.88 137.794C738.941 137.559 738.237 138.263 738.237 139.202C738.237 141.784 738.472 146.948 740.819 151.407C742.697 155.398 745.983 157.745 748.095 159.153C746.217 163.613 745.044 165.725 742.697 169.715C742.931 167.603 742.931 165.49 742.227 163.378C740.584 158.449 736.594 155.867 734.247 154.693C733.543 154.224 732.369 154.928 732.369 155.867C731.9 158.449 730.961 163.613 731.9 168.542C732.838 172.767 735.42 176.053 737.298 177.931C734.481 181.686 732.838 183.564 729.318 187.085C730.022 184.972 730.491 182.86 730.491 180.747C730.257 175.583 726.736 172.063 724.858 170.42C724.154 169.715 722.98 170.185 722.746 171.124C721.572 173.706 719.46 178.4 719.225 183.564C718.99 188.023 720.633 191.779 722.041 193.891C720.398 195.3 719.46 196.004 717.582 197.177C715.939 198.351 715.235 199.994 716.173 201.168C716.878 202.341 718.99 202.341 720.633 201.168C722.511 199.759 723.45 199.055 725.327 197.647C727.205 199.525 730.726 201.872 735.655 201.637C741.523 201.168 747.86 196.943 750.912 194.361C752.085 193.422 752.32 192.014 751.616 191.309C749.503 189.901 745.279 187.789 739.645 188.728C737.298 188.962 735.186 189.901 733.073 190.605C736.829 186.85 738.472 184.972 741.523 180.747C743.87 182.155 747.626 183.564 752.555 182.155C758.188 180.512 763.117 175.114 765.464 171.828C766.403 170.654 766.168 169.246 765.464 168.777C763.117 167.838 758.423 166.899 753.259 168.777C751.146 169.481 749.034 170.889 747.391 172.063C749.973 167.603 751.146 165.49 753.259 160.796C755.841 161.5 759.831 162.204 764.291 159.623C769.22 156.806 772.975 150.234 774.384 146.713C774.853 145.305 774.618 143.896 773.679 143.896C771.332 143.662 766.403 143.662 761.943 146.713C760.066 147.887 758.423 149.53 757.014 151.173C758.423 146.478 759.127 143.896 760.066 138.967C760.77 139.437 764.995 138.967 768.75 135.681Z" fill="black"/>
<path d="M611.725 196.71C609.847 195.301 608.908 194.832 607.265 193.423C608.674 191.311 610.317 187.556 610.082 183.096C609.847 177.932 607.735 173.238 606.561 170.656C606.092 169.717 604.918 169.482 604.449 169.952C602.571 171.595 599.05 174.881 598.816 180.279C598.816 182.392 599.05 184.739 599.989 186.617C596.468 183.096 594.825 181.218 592.009 177.463C593.886 175.585 596.468 172.534 597.407 168.074C598.581 163.145 597.642 157.981 596.938 155.399C596.703 154.46 595.764 153.991 595.06 154.226C592.948 155.399 588.723 157.981 587.08 162.91C586.375 165.023 586.375 167.135 586.61 169.247C584.028 165.023 583.089 162.91 581.212 158.685C583.559 157.277 586.61 154.93 588.488 150.939C590.835 146.48 591.07 141.316 591.07 138.734C591.07 137.795 590.366 137.091 589.427 137.326C587.08 137.795 582.385 139.438 579.803 143.898C578.63 145.776 578.16 147.888 577.926 150.001C576.517 145.541 575.813 143.194 575.109 138.499C577.691 137.795 581.212 136.152 584.028 132.631C587.314 128.876 588.723 123.947 589.427 121.365C589.662 120.426 588.957 119.487 588.253 119.487C585.671 119.487 580.977 119.957 577.456 123.712C576.048 125.355 574.874 127.233 574.17 129.111C573.701 124.416 573.701 122.069 573.935 117.14C576.517 116.905 580.508 116.201 584.028 113.619C588.019 110.568 590.6 106.108 591.774 103.761C592.243 102.822 591.774 101.883 591.07 101.649C588.723 101.179 583.794 100.475 579.569 103.292C577.691 104.465 576.283 106.108 575.109 107.751C575.813 103.057 576.517 100.71 577.926 96.0154C580.508 96.4849 584.498 96.4849 588.488 94.8418C593.182 92.7294 596.703 88.9739 598.581 86.6267C599.285 85.9225 599.05 84.7489 598.346 84.2795C596.234 83.1059 591.539 81.2282 586.61 83.1059C584.498 83.8101 582.62 85.2184 581.212 86.6267C583.324 81.6976 584.498 79.3504 587.314 74.4214C588.253 72.7783 588.253 70.9006 587.08 70.1964C585.906 69.4923 584.028 70.1964 583.089 71.8394C580.038 76.7685 578.864 79.3504 576.517 84.5142C576.517 82.167 576.283 79.8199 575.813 77.4727C574.405 71.8394 570.884 68.7881 569.006 67.3798C567.598 66.9104 566.19 67.8492 565.72 69.2575C564.312 73.2478 562.904 80.7587 564.781 86.1573C566.424 90.8516 569.945 93.1988 572.292 94.1377C570.884 99.0668 570.18 101.649 569.476 106.578C569.006 104.465 568.067 102.118 567.129 100.24C564.547 95.3113 560.322 92.9641 557.975 92.2599C557.036 92.0252 556.097 93.1988 556.097 94.6071C555.862 98.5973 556.097 106.108 559.383 110.803C562.2 115.028 566.19 116.201 568.772 116.671C568.537 121.6 568.537 124.182 569.006 129.111C568.067 127.233 566.659 125.12 565.251 123.477C561.495 119.487 556.801 118.079 554.454 117.844C553.515 117.844 552.811 119.018 553.045 120.426C553.75 124.182 555.627 131.458 559.852 135.213C563.608 138.499 567.598 138.969 570.18 138.734C571.119 143.663 571.588 146.01 573.231 150.939C571.354 149.766 569.71 148.123 567.833 146.715C563.138 143.663 558.444 143.428 556.097 143.898C555.158 144.133 554.923 145.541 555.393 146.715C556.801 150.235 560.556 156.807 565.486 159.624C569.71 162.206 573.935 161.502 576.517 160.798C578.63 165.492 579.569 167.604 582.385 172.064C580.508 170.891 578.63 169.482 576.517 168.778C571.354 166.666 566.659 167.839 564.312 168.778C563.373 169.013 563.373 170.656 564.312 171.829C566.659 175.115 571.588 180.514 577.221 182.157C581.916 183.565 585.906 181.922 588.253 180.749C591.305 184.739 592.948 186.851 596.703 190.607C594.591 189.668 592.243 188.964 590.131 188.729C584.498 188.025 580.273 189.903 578.16 191.311C577.456 191.78 577.691 193.423 578.864 194.362C581.916 196.944 588.253 201.169 594.121 201.639C599.285 201.873 602.571 199.526 604.449 197.648C606.327 199.057 607.265 199.761 609.143 201.169C610.786 202.343 612.899 202.343 613.603 201.169C614.072 199.761 613.368 197.883 611.725 196.71Z" fill="black"/>
<path d="M724.39 111.036C724.39 108.923 722.747 107.045 720.4 107.045H701.153V99.2998C701.153 97.1873 699.51 95.3096 697.162 95.3096H630.737C628.625 95.3096 626.747 96.9526 626.747 99.2998V107.045H607.5C605.388 107.045 603.51 108.689 603.51 111.036V118.312C603.51 135.212 614.776 149.764 630.972 154.224L637.309 155.867C638.483 157.51 639.422 158.683 640.595 159.857C644.82 164.082 649.984 166.899 656.087 168.307V180.747H647.872C646.229 180.747 644.586 181.921 644.116 183.564L641.065 193.891C640.595 195.769 642.004 197.881 644.116 197.881H684.018C686.131 197.881 687.539 196.004 687.07 193.891L684.018 183.564C683.549 181.921 681.906 180.747 680.263 180.747H672.048V168.307C678.15 166.899 683.314 164.082 687.539 159.857C688.713 158.683 689.652 157.51 690.825 155.867L697.162 154.224C713.358 149.764 724.625 135.212 724.625 118.312V111.036H724.39ZM615.481 119.016H626.747C626.982 123.71 627.451 132.16 630.268 141.08C621.818 137.324 615.95 128.64 615.481 119.016ZM697.867 141.08C700.683 132.16 701.387 123.241 701.387 119.016H712.654C712.184 128.64 706.317 137.324 697.867 141.08Z" fill="black"/>
<path d="M664.066 79.3496C667.118 79.3496 669.699 76.7677 669.699 73.7163V59.6332C669.699 56.5819 667.118 54 664.066 54C661.015 54 658.433 56.5819 658.433 59.6332V73.7163C658.433 77.0024 661.015 79.3496 664.066 79.3496Z" fill="black"/>
<path d="M686.834 84.278C687.538 84.5127 688.243 84.7474 689.182 84.7474C691.294 84.7474 693.406 83.5739 694.345 81.4614L700.213 68.5519C701.387 65.7353 700.213 62.4492 697.397 61.2756C694.58 60.102 691.294 61.2756 690.12 64.0922L684.252 77.0017C682.609 79.8184 684.018 83.1044 686.834 84.278Z" fill="black"/>
<path d="M634.025 81.4614C634.963 83.5739 637.076 84.7474 639.188 84.7474C639.892 84.7474 640.597 84.5127 641.536 84.278C644.352 83.1044 645.526 79.8184 644.352 77.0017L638.719 64.0922C637.545 61.2756 634.259 60.102 631.443 61.2756C628.626 62.4492 627.452 65.7353 628.626 68.5519L634.025 81.4614Z" fill="black"/>
<defs>
<filter id="filter0_d_7_70" x="63.5529" y="180.919" width="1176.94" height="407.113" filterUnits="userSpaceOnUse" color-interpolation-filters="sRGB">
<feFlood flood-opacity="0" result="BackgroundImageFix"/>
<feColorMatrix in="SourceAlpha" type="matrix" values="0 0 0 0 0 0 0 0 0 0 0 0 0 0 0 0 0 0 127 0" result="hardAlpha"/>
<feOffset dx="-20" dy="20"/>
<feComposite in2="hardAlpha" operator="out"/>
<feColorMatrix type="matrix" values="0 0 0 0 0 0 0 0 0 0 0 0 0 0 0 0 0 0 1 0"/>
<feBlend mode="normal" in2="BackgroundImageFix" result="effect1_dropShadow_7_70"/>
<feBlend mode="normal" in="SourceGraphic" in2="effect1_dropShadow_7_70" result="shape"/>
</filter>
<filter id="filter1_d_7_70" x="479" y="515.325" width="361.351" height="174.253" filterUnits="userSpaceOnUse" color-interpolation-filters="sRGB">
<feFlood flood-opacity="0" result="BackgroundImageFix"/>
<feColorMatrix in="SourceAlpha" type="matrix" values="0 0 0 0 0 0 0 0 0 0 0 0 0 0 0 0 0 0 127 0" result="hardAlpha"/>
<feOffset dx="-6" dy="8"/>
<feComposite in2="hardAlpha" operator="out"/>
<feColorMatrix type="matrix" values="0 0 0 0 0 0 0 0 0 0 0 0 0 0 0 0 0 0 1 0"/>
<feBlend mode="normal" in2="BackgroundImageFix" result="effect1_dropShadow_7_70"/>
<feBlend mode="normal" in="SourceGraphic" in2="effect1_dropShadow_7_70" result="shape"/>
</filter>
</defs>
</svg>
